<svg width="26" height="29" viewBox="0 0 26 29" fill="none" xmlns="http://www.w3.org/2000/svg">
<path fill-rule="evenodd" clip-rule="evenodd" d="M22.2029 9.3125H3.79711C3.01683 9.3125 2.40694 9.89011 2.41249 10.5882C2.43458 13.3645 2.53092 17.6184 2.87955 20.1601C3.21059 22.5736 4.0137 25.1971 4.59222 26.877C4.75467 27.3487 5.24221 27.6875 5.8393 27.6875H20.1607C20.7578 27.6875 21.2453 27.3487 21.4078 26.877C21.9863 25.1971 22.7894 22.5736 23.1204 20.1601C23.4691 17.6184 23.5654 13.3645 23.5875 10.5882C23.5931 9.89011 22.9832 9.3125 22.2029 9.3125ZM3.79711 8C2.24721 8 0.988619 9.15773 1.00008 10.5979C1.02208 13.3628 1.11743 17.6942 1.47843 20.3261C1.82587 22.8591 2.66001 25.5726 3.24697 27.277C3.6063 28.3204 4.66033 29 5.8393 29H20.1607C21.3397 29 22.3937 28.3204 22.753 27.277C23.34 25.5726 24.1741 22.8591 24.5216 20.3261C24.8826 17.6942 24.9779 13.3628 24.9999 10.5979C25.0114 9.15773 23.7528 8 22.2029 8H3.79711Z" fill="#333333"/>
<path fill-rule="evenodd" clip-rule="evenodd" d="M6.5836 4.90078C7.00301 2.08677 9.4705 0 12.3785 0H12.6215C15.5295 0 17.997 2.08677 18.4164 4.90078L19 8.81646L17.7122 9L17.1286 5.08432C16.8024 2.89565 14.8833 1.2726 12.6215 1.2726H12.3785C10.1167 1.2726 8.19756 2.89565 7.87136 5.08432L7.28775 9L6 8.81646L6.5836 4.90078Z" fill="#333333"/>
<path d="M12.972 22.072C12.324 22.072 11.744 21.9 11.232 21.556C10.728 21.212 10.332 20.72 10.044 20.08C9.764 19.432 9.624 18.672 9.624 17.8C9.624 16.928 9.764 16.172 10.044 15.532C10.332 14.884 10.728 14.388 11.232 14.044C11.744 13.7 12.324 13.528 12.972 13.528C13.62 13.528 14.196 13.7 14.7 14.044C15.212 14.388 15.612 14.884 15.9 15.532C16.188 16.172 16.332 16.928 16.332 17.8C16.332 18.672 16.188 19.432 15.9 20.08C15.612 20.72 15.212 21.212 14.7 21.556C14.196 21.9 13.62 22.072 12.972 22.072ZM12.972 21.28C13.46 21.28 13.888 21.144 14.256 20.872C14.632 20.6 14.924 20.204 15.132 19.684C15.34 19.164 15.444 18.536 15.444 17.8C15.444 17.064 15.34 16.436 15.132 15.916C14.924 15.396 14.632 15 14.256 14.728C13.888 14.456 13.46 14.32 12.972 14.32C12.484 14.32 12.052 14.456 11.676 14.728C11.308 15 11.02 15.396 10.812 15.916C10.604 16.436 10.5 17.064 10.5 17.8C10.5 18.536 10.604 19.164 10.812 19.684C11.02 20.204 11.308 20.6 11.676 20.872C12.052 21.144 12.484 21.28 12.972 21.28Z" fill="#333333"/>
</svg>
