<svg width="177" height="40" viewBox="0 0 177 40" fill="none" xmlns="http://www.w3.org/2000/svg">
<mask id="mask0" mask-type="alpha" maskUnits="userSpaceOnUse" x="8" y="0" width="162" height="40">
<path d="M123.234 39.8406V33.5866H128.485V34.3198H124.271V36.2668H127.921V37.0001H124.271V39.8406H123.234ZM130.449 39.8406V33.5866H133.897C134.588 33.5866 135.119 33.6456 135.473 33.7551C135.835 33.8647 136.122 34.067 136.341 34.3451C136.552 34.6317 136.661 34.9436 136.661 35.2891C136.661 35.7358 136.484 36.1067 136.13 36.4101C135.768 36.7136 135.22 36.9074 134.47 36.9917C134.748 37.0928 134.95 37.2024 135.093 37.3036C135.397 37.5227 135.675 37.8008 135.945 38.138L137.293 39.8406H136.004L134.975 38.5341C134.68 38.1633 134.428 37.8767 134.234 37.6744C134.04 37.4721 133.863 37.3373 133.711 37.253C133.559 37.1771 133.399 37.1266 133.239 37.0928C133.13 37.076 132.936 37.0591 132.666 37.0591H131.478V39.8406H130.449ZM131.478 36.3427H133.686C134.158 36.3427 134.529 36.309 134.79 36.2247C135.051 36.1488 135.254 36.0224 135.388 35.8538C135.532 35.6768 135.599 35.4914 135.599 35.2891C135.599 34.9941 135.464 34.7497 135.203 34.5643C134.933 34.3704 134.512 34.2777 133.939 34.2777H131.478V36.3427ZM138.027 39.8406L141.01 33.5866H142.14L145.309 39.8406H144.137L143.235 37.9441H139.957L139.114 39.8406H138.027ZM140.26 37.2698H142.915L142.106 35.542C141.862 35.011 141.676 34.5727 141.541 34.2356C141.44 34.6401 141.297 35.0363 141.12 35.4324L140.26 37.2698ZM146.716 39.8406V33.5866H147.778L151.858 38.492V33.5866H152.852V39.8406H151.79L147.711 34.9351V39.8406H146.716ZM160.725 37.6491L161.761 37.8514C161.542 38.5341 161.155 39.0483 160.598 39.4107C160.034 39.7647 159.351 39.9417 158.542 39.9417C157.707 39.9417 157.025 39.8068 156.502 39.5287C155.971 39.259 155.575 38.8628 155.305 38.3403C155.027 37.8177 154.892 37.2614 154.892 36.663C154.892 36.014 155.044 35.4493 155.356 34.9604C155.668 34.48 156.106 34.1091 156.679 33.8563C157.244 33.6034 157.876 33.4854 158.559 33.4854C159.334 33.4854 159.991 33.6371 160.522 33.9574C161.053 34.2777 161.424 34.7244 161.627 35.2976L160.615 35.4914C160.438 35.0363 160.177 34.7076 159.831 34.4968C159.494 34.2946 159.064 34.185 158.542 34.185C157.943 34.185 157.446 34.303 157.041 34.5306C156.645 34.7666 156.359 35.07 156.199 35.4577C156.038 35.8454 155.954 36.25 155.954 36.663C155.954 37.194 156.055 37.6576 156.241 38.0537C156.435 38.4498 156.738 38.7448 157.143 38.9387C157.547 39.141 157.985 39.2337 158.457 39.2337C159.031 39.2337 159.519 39.0988 159.916 38.8376C160.32 38.5678 160.59 38.1717 160.725 37.6491ZM163.658 39.8406V33.5866H169.28V34.3198H164.695V36.2416H168.985V36.9748H164.695V39.1073H169.465V39.8406H163.658Z" fill="#8C8C8C"/>
<path d="M8.62305 0.630859H15.4249V21.264H23.4995V27.99H8.62305V0.630859ZM78.4706 9.08472L72.1998 10.3153C71.989 8.94143 71.517 7.90472 70.7669 7.20515C70.0168 6.514 69.0475 6.16843 67.8506 6.16843C66.266 6.16843 65.0018 6.77529 64.0578 7.98057C63.1138 9.19429 62.6418 11.2171 62.6418 14.066C62.6418 17.2183 63.1222 19.4519 64.083 20.7583C65.0355 22.0647 66.3251 22.7137 67.9349 22.7137C69.1402 22.7137 70.1263 22.326 70.8933 21.5674C71.6688 20.8089 72.2082 19.5024 72.5285 17.6397L78.7909 18.8197C78.1419 21.9973 76.8945 24.391 75.0571 26.0177C73.2112 27.636 70.75 28.4451 67.6483 28.4451C64.1336 28.4451 61.3269 27.2146 59.2366 24.7703C57.1379 22.3091 56.0928 18.9124 56.0928 14.5633C56.0928 10.172 57.1463 6.75843 59.245 4.30572C61.3438 1.853 64.1842 0.630859 67.7579 0.630859C70.6826 0.630859 73.0173 1.33043 74.7452 2.72957C76.4731 4.11186 77.7121 6.23586 78.4706 9.08472ZM31.1863 14.5801L25.3369 13.8131C25.556 12.5404 25.8763 11.5374 26.2893 10.8126C26.7108 10.0793 27.3008 9.45557 28.093 8.91615C28.6493 8.52843 29.4163 8.23343 30.394 8.02272C31.3802 7.812 32.4422 7.70243 33.58 7.70243C35.4175 7.70243 36.884 7.82886 37.9966 8.08172C39.1008 8.33457 40.0363 8.874 40.7696 9.68315C41.2922 10.2394 41.7052 11.0401 42.0002 12.06C42.3036 13.0883 42.4553 14.066 42.4553 15.0016V23.7673C42.4553 24.7029 42.4975 25.4361 42.5986 25.9671C42.6913 26.4897 42.9021 27.164 43.2223 27.99H37.4909C37.2549 27.4759 37.1116 27.0966 37.0358 26.8269C36.9683 26.5656 36.9009 26.1441 36.825 25.5794C36.0243 26.5403 35.232 27.2146 34.4313 27.6276C33.3525 28.1754 32.0966 28.4451 30.6638 28.4451C28.7589 28.4451 27.3176 27.8973 26.3315 26.8016C25.3369 25.7059 24.848 24.3489 24.848 22.739C24.848 21.2303 25.202 19.9913 25.91 19.0136C26.6265 18.0443 27.9413 17.3194 29.8546 16.8474C32.1472 16.2743 33.639 15.8697 34.3133 15.6337C34.996 15.4061 35.7209 15.1111 36.4795 14.7319C36.4795 13.7963 36.3278 13.1473 36.0159 12.768C35.704 12.3971 35.1646 12.2117 34.3808 12.2117C33.3862 12.2117 32.636 12.4056 32.1303 12.8101C31.7426 13.1304 31.4308 13.712 31.1863 14.5801ZM36.4795 18.55C35.645 18.9293 34.76 19.258 33.8413 19.553C32.6023 19.966 31.81 20.3706 31.4813 20.7751C31.1442 21.1881 30.9756 21.6601 30.9756 22.1911C30.9756 22.7896 31.1442 23.2869 31.4729 23.6746C31.81 24.0539 32.3073 24.2477 32.9563 24.2477C33.639 24.2477 34.2796 24.037 34.8696 23.624C35.4512 23.2026 35.8642 22.7053 36.1086 22.1069C36.3615 21.5084 36.4795 20.733 36.4795 19.7721V18.55ZM79.423 18.1286C79.423 15.1027 80.2406 12.6079 81.8842 10.644C83.5278 8.68015 85.7445 7.70243 88.5343 7.70243C91.7288 7.70243 94.1393 8.85715 95.7745 11.1581C97.0809 13.0209 97.7383 15.305 97.7383 18.019C97.7383 21.0701 96.9292 23.5734 95.3025 25.5204C93.6758 27.4759 91.4253 28.4451 88.5512 28.4451C85.9889 28.4451 83.9155 27.636 82.3393 26.0177C80.3923 24.0117 79.423 21.382 79.423 18.1286ZM85.5506 18.1201C85.5506 19.8986 85.8372 21.205 86.4103 22.0563C86.9835 22.8991 87.7083 23.329 88.5765 23.329C89.453 23.329 90.1695 22.9076 90.7342 22.0731C91.2989 21.2387 91.5855 19.8986 91.5855 18.0527C91.5855 16.3249 91.2989 15.0437 90.7342 14.2009C90.161 13.358 89.4615 12.9366 88.6186 12.9366C87.7336 12.9366 87.0003 13.3664 86.4188 14.2177C85.8372 15.0774 85.5506 16.3754 85.5506 18.1201ZM97.772 22.4861L103.832 21.8034C104.085 22.6884 104.431 23.329 104.886 23.7083C105.332 24.0876 105.939 24.2814 106.689 24.2814C107.515 24.2814 108.148 24.0623 108.603 23.624C108.957 23.3121 109.125 22.8991 109.125 22.4187C109.125 21.8709 108.898 21.441 108.434 21.146C108.105 20.9353 107.229 20.674 105.804 20.3621C103.68 19.8986 102.214 19.4771 101.379 19.081C100.553 18.6933 99.8623 18.0274 99.2892 17.0919C98.7245 16.1563 98.4463 15.0943 98.4463 13.8974C98.4463 12.591 98.7498 11.4616 99.3566 10.526C99.9719 9.57357 100.815 8.86557 101.885 8.402C102.956 7.93843 104.388 7.70243 106.192 7.70243C108.089 7.70243 109.496 7.87943 110.398 8.24186C111.308 8.60429 112.058 9.169 112.665 9.92757C113.272 10.6861 113.778 11.7144 114.174 13.0124L108.392 13.7036C108.24 13.0714 107.987 12.6079 107.642 12.3044C107.161 11.9083 106.58 11.7144 105.897 11.7144C105.214 11.7144 104.709 11.8661 104.397 12.1696C104.085 12.473 103.925 12.8439 103.925 13.2821C103.925 13.771 104.127 14.1334 104.523 14.3779C104.919 14.6391 105.788 14.8583 107.128 15.0606C109.167 15.3387 110.676 15.7433 111.671 16.2574C112.657 16.7631 113.415 17.488 113.938 18.4404C114.469 19.3844 114.73 20.4211 114.73 21.559C114.73 22.7053 114.452 23.8179 113.896 24.8967C113.34 25.984 112.463 26.8437 111.266 27.4843C110.069 28.1249 108.443 28.4451 106.378 28.4451C103.461 28.4451 101.388 27.931 100.149 26.8943C98.9099 25.866 98.1176 24.391 97.772 22.4861ZM115.834 39.8406V8.15757H121.566V11.0823C122.358 9.85172 123.083 9.01729 123.749 8.579C124.634 7.99743 125.628 7.70243 126.707 7.70243C128.84 7.70243 130.492 8.71386 131.663 10.7451C132.826 12.7764 133.408 15.2881 133.408 18.2803C133.408 21.5843 132.776 24.1044 131.503 25.8407C130.23 27.577 128.621 28.4451 126.674 28.4451C125.73 28.4451 124.878 28.2513 124.103 27.8551C123.319 27.4506 122.628 26.869 122.021 26.0851V39.8406H115.834ZM121.97 18.137C121.97 19.7131 122.24 20.8847 122.771 21.6433C123.294 22.4103 123.968 22.7896 124.777 22.7896C125.485 22.7896 126.084 22.4271 126.564 21.6939C127.044 20.969 127.28 19.7216 127.28 17.9769C127.28 16.3586 127.028 15.1701 126.53 14.4116C126.033 13.653 125.426 13.2821 124.701 13.2821C123.926 13.2821 123.277 13.6614 122.754 14.4284C122.232 15.187 121.97 16.426 121.97 18.137ZM134.883 0.630859H141.685V21.264H149.768V27.99H134.883V0.630859ZM157.455 14.5801L151.605 13.8131C151.824 12.5404 152.145 11.5374 152.558 10.8126C152.971 10.0793 153.569 9.45557 154.353 8.91615C154.918 8.52843 155.685 8.23343 156.662 8.02272C157.64 7.812 158.702 7.70243 159.848 7.70243C161.677 7.70243 163.144 7.82886 164.265 8.08172C165.369 8.33457 166.296 8.874 167.038 9.68315C167.561 10.2394 167.974 11.0401 168.269 12.06C168.572 13.0883 168.724 14.066 168.724 15.0016V23.7673C168.724 24.7029 168.766 25.4361 168.867 25.9671C168.96 26.4897 169.17 27.164 169.482 27.99H163.751C163.523 27.4759 163.372 27.0966 163.304 26.8269C163.237 26.5656 163.161 26.1441 163.093 25.5794C162.293 26.5403 161.5 27.2146 160.7 27.6276C159.621 28.1754 158.365 28.4451 156.932 28.4451C155.027 28.4451 153.578 27.8973 152.591 26.8016C151.605 25.7059 151.116 24.3489 151.116 22.739C151.116 21.2303 151.47 19.9913 152.178 19.0136C152.895 18.0443 154.21 17.3194 156.123 16.8474C158.416 16.2743 159.899 15.8697 160.582 15.6337C161.264 15.4061 161.989 15.1111 162.748 14.7319C162.748 13.7963 162.596 13.1473 162.284 12.768C161.972 12.3971 161.433 12.2117 160.649 12.2117C159.646 12.2117 158.904 12.4056 158.399 12.8101C158.011 13.1304 157.691 13.712 157.455 14.5801ZM162.748 18.55C161.905 18.9293 161.028 19.258 160.11 19.553C158.871 19.966 158.078 20.3706 157.75 20.7751C157.404 21.1881 157.236 21.6601 157.236 22.1911C157.236 22.7896 157.404 23.2869 157.741 23.6746C158.078 24.0539 158.576 24.2477 159.225 24.2477C159.907 24.2477 160.54 24.037 161.13 23.624C161.72 23.2026 162.133 22.7053 162.377 22.1069C162.621 21.5084 162.748 20.733 162.748 19.7721V18.55Z" fill="#8C8C8C"/>
</mask>
<g mask="url(#mask0)">
<rect x="-12" y="-15" width="66" height="83" fill="url(#paint0_linear)"/>
<rect x="55" y="-8" width="155" height="56" fill="url(#paint1_linear)"/>
</g>
<defs>
<linearGradient id="paint0_linear" x1="17.2817" y1="-9.5" x2="-8.76164" y2="1.47937" gradientUnits="userSpaceOnUse">
<stop stop-color="#91887F"/>
<stop offset="0.560158" stop-color="#504C45"/>
<stop offset="1" stop-color="#8F867D"/>
</linearGradient>
<linearGradient id="paint1_linear" x1="187.114" y1="3.80723" x2="79.4744" y2="-10.5598" gradientUnits="userSpaceOnUse">
<stop stop-color="#574F4C"/>
<stop offset="0.560158" stop-color="#433E3B"/>
<stop offset="1" stop-color="#84807D"/>
</linearGradient>
</defs>
</svg>
