<svg width="29" height="28" viewBox="0 0 29 28" fill="none" xmlns="http://www.w3.org/2000/svg">
<path d="M5.80459 5.38854C4.23744 7.01603 4.55819 8.74487 4.55819 13.997C4.55819 18.3586 3.79704 22.731 7.78057 23.7603C9.02448 24.0802 20.0461 24.0802 21.2883 23.7587C22.9469 23.3308 24.2963 21.9858 24.4808 19.6405C24.5065 19.3132 24.5065 8.68672 24.48 8.35275C24.2838 5.8546 22.7458 4.41487 20.7191 4.12327C20.2546 4.05597 20.1616 4.03604 17.7784 4.03188C9.32528 4.03604 7.47229 3.65969 5.80459 5.38854Z" fill="url(#paint0_linear)"/>
<path d="M14.5284 6.63992C11.5112 6.63992 8.64617 6.37158 7.55182 9.1796C7.09979 10.3394 7.16543 11.8456 7.16543 14.0023C7.16543 15.8948 7.10478 17.6735 7.55182 18.8241C8.64368 21.6338 11.532 21.3646 14.5267 21.3646C17.4159 21.3646 20.3948 21.6653 21.5025 18.8241C21.9553 17.6527 21.8888 16.1689 21.8888 14.0023C21.8888 11.1261 22.0476 9.26932 20.6524 7.87528C19.2398 6.46296 17.3295 6.63992 14.5251 6.63992H14.5284ZM13.8686 7.96667C20.1622 7.9567 20.9632 7.25719 20.5211 16.9748C20.3641 20.4117 17.7466 20.0345 14.5292 20.0345C8.66279 20.0345 8.49411 19.8667 8.49411 13.9989C8.49411 8.06304 8.95943 7.96999 13.8686 7.96501V7.96667ZM18.4587 9.18874C17.971 9.18874 17.5754 9.58419 17.5754 10.0719C17.5754 10.5595 17.971 10.955 18.4587 10.955C18.9465 10.955 19.342 10.5595 19.342 10.0719C19.342 9.58419 18.9465 9.18874 18.4587 9.18874ZM14.5284 10.2214C12.4402 10.2214 10.7476 11.9145 10.7476 14.0023C10.7476 16.09 12.4402 17.7823 14.5284 17.7823C16.6165 17.7823 18.3083 16.09 18.3083 14.0023C18.3083 11.9145 16.6165 10.2214 14.5284 10.2214ZM14.5284 11.5481C17.7732 11.5481 17.7774 16.4564 14.5284 16.4564C11.2844 16.4564 11.2794 11.5481 14.5284 11.5481Z" fill="white"/>
<defs>
<linearGradient id="paint0_linear" x1="5.84283" y1="22.697" x2="24.3742" y2="6.65517" gradientUnits="userSpaceOnUse">
<stop stop-color="#FFDD55"/>
<stop offset="0.5" stop-color="#FF543E"/>
<stop offset="1" stop-color="#C837AB"/>
</linearGradient>
</defs>
</svg>
