<svg width="29" height="29" viewBox="0 0 29 29" fill="none" xmlns="http://www.w3.org/2000/svg">
<path fill-rule="evenodd" clip-rule="evenodd" d="M24.2029 9.3125H5.79711C5.01683 9.3125 4.40694 9.89011 4.41249 10.5882C4.43458 13.3645 4.53092 17.6184 4.87955 20.1601C5.21059 22.5736 6.0137 25.1971 6.59222 26.877C6.75467 27.3487 7.24221 27.6875 7.8393 27.6875H22.1607C22.7578 27.6875 23.2453 27.3487 23.4078 26.877C23.9863 25.1971 24.7894 22.5736 25.1204 20.1601C25.4691 17.6184 25.5654 13.3645 25.5875 10.5882C25.5931 9.89011 24.9832 9.3125 24.2029 9.3125ZM5.79711 8C4.24721 8 2.98862 9.15773 3.00008 10.5979C3.02208 13.3628 3.11743 17.6942 3.47843 20.3261C3.82587 22.8591 4.66001 25.5726 5.24697 27.277C5.6063 28.3204 6.66033 29 7.8393 29H22.1607C23.3397 29 24.3937 28.3204 24.753 27.277C25.34 25.5726 26.1741 22.8591 26.5216 20.3261C26.8826 17.6942 26.9779 13.3628 26.9999 10.5979C27.0114 9.15773 25.7528 8 24.2029 8H5.79711Z" fill="#333333"/>
<path fill-rule="evenodd" clip-rule="evenodd" d="M8.5836 4.90078C9.00301 2.08677 11.4705 0 14.3785 0H14.6215C17.5295 0 19.997 2.08677 20.4164 4.90078L21 8.81646L19.7122 9L19.1286 5.08432C18.8024 2.89565 16.8833 1.2726 14.6215 1.2726H14.3785C12.1167 1.2726 10.1976 2.89565 9.87136 5.08432L9.28775 9L8 8.81646L8.5836 4.90078Z" fill="#333333"/>
<path d="M14.972 22.072C14.324 22.072 13.744 21.9 13.232 21.556C12.728 21.212 12.332 20.72 12.044 20.08C11.764 19.432 11.624 18.672 11.624 17.8C11.624 16.928 11.764 16.172 12.044 15.532C12.332 14.884 12.728 14.388 13.232 14.044C13.744 13.7 14.324 13.528 14.972 13.528C15.62 13.528 16.196 13.7 16.7 14.044C17.212 14.388 17.612 14.884 17.9 15.532C18.188 16.172 18.332 16.928 18.332 17.8C18.332 18.672 18.188 19.432 17.9 20.08C17.612 20.72 17.212 21.212 16.7 21.556C16.196 21.9 15.62 22.072 14.972 22.072ZM14.972 21.28C15.46 21.28 15.888 21.144 16.256 20.872C16.632 20.6 16.924 20.204 17.132 19.684C17.34 19.164 17.444 18.536 17.444 17.8C17.444 17.064 17.34 16.436 17.132 15.916C16.924 15.396 16.632 15 16.256 14.728C15.888 14.456 15.46 14.32 14.972 14.32C14.484 14.32 14.052 14.456 13.676 14.728C13.308 15 13.02 15.396 12.812 15.916C12.604 16.436 12.5 17.064 12.5 17.8C12.5 18.536 12.604 19.164 12.812 19.684C13.02 20.204 13.308 20.6 13.676 20.872C14.052 21.144 14.484 21.28 14.972 21.28Z" fill="#333333"/>
</svg>
