<svg width="29" height="29" viewBox="0 0 29 29" fill="none" xmlns="http://www.w3.org/2000/svg">
<g clip-path="url(#clip0)">
<path d="M22.8173 12.3844H20.7404C20.7396 11.5584 20.4111 10.7665 19.827 10.1824C19.2429 9.59838 18.451 9.26989 17.625 9.26906V7.19214C19.0016 7.19379 20.3213 7.74136 21.2947 8.71475C22.2681 9.68814 22.8157 11.0079 22.8173 12.3844Z" fill="#333333" stroke="white" stroke-width="0.6"/>
<path d="M26.9712 12.3844H24.8942C24.892 10.4571 24.1255 8.60944 22.7627 7.24667C21.3999 5.8839 19.5522 5.11733 17.625 5.11513V3.03821C20.1029 3.04096 22.4785 4.02652 24.2307 5.77867C25.9828 7.53082 26.9684 9.90645 26.9712 12.3844Z" fill="#333333" stroke="white" stroke-width="0.6"/>
<path d="M24.8938 29H24.7172C4.31147 27.8265 1.41416 10.6088 1.00916 5.35423C0.945866 4.53047 1.21237 3.7153 1.75007 3.08802C2.28776 2.46075 3.0526 2.07274 3.87636 2.00935C3.95874 2.00312 4.04147 2 4.12455 2H9.59724C10.0132 1.9996 10.4197 2.12411 10.7641 2.3574C11.1085 2.59069 11.3749 2.92202 11.5288 3.30846L13.1072 7.19231C13.2592 7.56984 13.2969 7.9837 13.2157 8.38248C13.1345 8.78126 12.9379 9.14739 12.6503 9.43539L10.4384 11.6681C10.7825 13.6321 11.7223 15.4429 13.1304 16.8547C14.5385 18.2665 16.3468 19.2111 18.3099 19.5604L20.5634 17.3277C20.8557 17.0433 21.2253 16.8513 21.626 16.7756C22.0268 16.6999 22.4409 16.7438 22.8169 16.9019L26.7319 18.47C27.1125 18.6288 27.4372 18.8972 27.6647 19.2412C27.8922 19.5852 28.0121 19.9891 28.0092 20.4015V25.8846C28.0092 26.7109 27.6809 27.5033 27.0967 28.0875C26.5124 28.6718 25.72 29 24.8938 29ZM4.12455 4.07692C3.98818 4.07651 3.85306 4.10297 3.72691 4.15478C3.60076 4.20659 3.48605 4.28274 3.38933 4.37888C3.29261 4.47502 3.21578 4.58927 3.16321 4.7151C3.11065 4.84094 3.08338 4.9759 3.08297 5.11227C3.08297 5.14135 3.08401 5.17008 3.08609 5.19846C3.56378 11.3462 6.62724 25.8846 24.8315 26.9231C25.1063 26.9395 25.3765 26.8462 25.5825 26.6635C25.7885 26.4809 25.9136 26.2238 25.9302 25.949L25.9322 25.8846V20.4015L22.0172 18.8335L19.0369 21.7931L18.5384 21.7308C9.50378 20.5988 8.27839 11.5642 8.27839 11.4708L8.21609 10.9723L11.1653 7.99192L9.60763 4.07692H4.12455Z" fill="#333333" stroke="white" stroke-width="0.6"/>
</g>
<defs>
<clipPath id="clip0">
<rect width="29" height="29" fill="white"/>
</clipPath>
</defs>
</svg>
