<svg width="29" height="28" viewBox="0 0 29 28" fill="none" xmlns="http://www.w3.org/2000/svg">
<path d="M14.5 24C20.0228 24 24.5 19.5228 24.5 14C24.5 8.47715 20.0228 4 14.5 4C8.97715 4 4.5 8.47715 4.5 14C4.5 19.5228 8.97715 24 14.5 24Z" fill="#039BE5"/>
<path d="M8.48474 12.8663L18.1264 9.2614C18.5739 9.10464 18.9647 9.36726 18.8197 10.0234L18.8206 10.0226L17.1789 17.5224C17.0572 18.0541 16.7314 18.1834 16.2756 17.9329L13.7756 16.1462L12.5697 17.2727C12.4364 17.402 12.3239 17.5111 12.0656 17.5111L12.2431 15.044L16.8764 10.985C17.0781 10.8129 16.8314 10.7159 16.5656 10.8873L10.8397 14.383L8.37141 13.6364C7.83558 13.4715 7.82391 13.1168 8.48474 12.8663Z" fill="white"/>
</svg>
