<svg width="29" height="28" viewBox="0 0 29 28" fill="none" xmlns="http://www.w3.org/2000/svg">
<path d="M14.25 24C19.7728 24 24.25 19.5228 24.25 14C24.25 8.47715 19.7728 4 14.25 4C8.72715 4 4.25 8.47715 4.25 14C4.25 19.5228 8.72715 24 14.25 24Z" fill="#7F4DA0"/>
<g clip-path="url(#clip0)">
<path d="M17.8722 13.927H18.8867C18.8867 11.3248 16.9221 9.3623 14.3164 9.3623V10.3768C16.3768 10.3768 17.8722 11.8696 17.8722 13.927Z" fill="white"/>
<path d="M14.3226 12.4056C15.3893 12.4056 15.8443 12.8606 15.8443 13.9274H16.8588C16.8588 12.2915 15.9585 11.3911 14.3226 11.3911V12.4056ZM16.0584 15.1666C15.9609 15.078 15.8329 15.0307 15.7012 15.0348C15.5696 15.0389 15.4446 15.0939 15.3528 15.1884L14.139 16.4367C13.8468 16.3809 13.2594 16.1978 12.6548 15.5947C12.0501 14.9895 11.867 14.4006 11.8128 14.1105L13.0601 12.8961C13.1546 12.8044 13.2098 12.6794 13.2138 12.5477C13.2179 12.4161 13.1706 12.288 13.0819 12.1905L11.2076 10.1296C11.1189 10.0319 10.9955 9.97261 10.8638 9.96437C10.732 9.95613 10.6023 9.99957 10.502 10.0855L9.4013 11.0295C9.31361 11.1175 9.26126 11.2346 9.2542 11.3587C9.24659 11.4855 9.10152 14.4894 11.4308 16.8197C13.4628 18.8512 16.0082 18.9998 16.7092 18.9998C16.8117 18.9998 16.8746 18.9968 16.8913 18.9958C17.0153 18.9888 17.1324 18.9362 17.22 18.8481L18.1635 17.7469C18.2494 17.6467 18.293 17.517 18.2848 17.3853C18.2767 17.2535 18.2175 17.1302 18.1199 17.0413L16.0584 15.1666Z" fill="white"/>
</g>
<defs>
<clipPath id="clip0">
<rect width="11.3043" height="10.4348" fill="white" transform="translate(8.59766 9.21729)"/>
</clipPath>
</defs>
</svg>
